<svg width="35" height="41" viewBox="0 0 35 41" fill="none" xmlns="http://www.w3.org/2000/svg">
<path d="M17.4964 24.105C13.5224 24.105 10.276 20.8773 10.276 16.8846C10.276 12.892 13.5224 9.683 17.4964 9.683C21.4704 9.683 24.7168 12.9107 24.7168 16.9033C24.7168 20.8959 21.4704 24.105 17.4964 24.105ZM17.4964 12.4816C15.071 12.4816 13.0746 14.4593 13.0746 16.9033C13.0746 19.3474 15.0523 21.325 17.4964 21.325C19.9405 21.325 21.9182 19.3474 21.9182 16.9033C21.9182 14.4593 19.9219 12.4816 17.4964 12.4816Z" fill="#292D32"/>
<path d="M17.4942 40.1317C14.733 40.1317 11.953 39.0869 9.78879 37.016C4.2849 31.7173 -1.79736 23.2656 0.497479 13.2093C2.56843 4.08594 10.5351 0 17.4942 0H17.5129C24.4721 0 32.4387 4.08594 34.5097 13.228C36.7858 23.2842 30.7036 31.7173 25.1997 37.016C23.0354 39.0869 20.2555 40.1317 17.4942 40.1317ZM17.4942 2.79859C12.065 2.79859 5.08716 5.69046 3.24009 13.825C1.22511 22.6126 6.74766 30.1874 11.7478 34.9823C14.9755 38.0981 20.0316 38.0981 23.2593 34.9823C28.2408 30.1874 33.7634 22.6126 31.7857 13.825C29.92 5.69046 22.9235 2.79859 17.4942 2.79859Z" fill="#292D32"/>
</svg>
