<svg width="50" height="50" viewBox="0 0 50 50" fill="none" xmlns="http://www.w3.org/2000/svg">
<path d="M48.8316 25.4677C48.8316 23.4193 48.6654 21.9244 48.3057 20.3742H24.9141V29.62H38.6444C38.3677 31.9178 36.8728 35.3781 33.5509 37.7032L33.5043 38.0128L40.9003 43.7424L41.4127 43.7935C46.1186 39.4473 48.8316 33.0527 48.8316 25.4677Z" fill="#4285F4"/>
<path d="M24.9141 49.8282C31.6409 49.8282 37.288 47.6135 41.4128 43.7935L33.551 37.7032C31.4472 39.1704 28.6235 40.1947 24.9141 40.1947C18.3258 40.1947 12.734 35.8487 10.7407 29.8416L10.4485 29.8664L2.75804 35.8181L2.65747 36.0977C6.75442 44.2363 15.1699 49.8282 24.9141 49.8282Z" fill="#34A853"/>
<path d="M10.7406 29.8416C10.2147 28.2914 9.91031 26.6303 9.91031 24.9141C9.91031 23.1977 10.2147 21.5368 10.713 19.9866L10.699 19.6565L2.91221 13.6092L2.65744 13.7303C0.968893 17.1076 0 20.9002 0 24.9141C0 28.9281 0.968893 32.7204 2.65744 36.0977L10.7406 29.8416Z" fill="#FBBC05"/>
<path d="M24.9141 9.6334C29.5924 9.6334 32.7481 11.6542 34.5475 13.3429L41.5788 6.47767C37.2605 2.46374 31.6409 0 24.9141 0C15.1699 0 6.75442 5.5918 2.65747 13.7303L10.713 19.9866C12.734 13.9796 18.3258 9.6334 24.9141 9.6334Z" fill="#EB4335"/>
</svg>
