<svg width="39" height="39" viewBox="0 0 39 39" fill="none" xmlns="http://www.w3.org/2000/svg">
<path d="M20.9685 9.43256H8.13148C5.30998 9.43256 3 11.7703 3 14.6257V33.595C3 36.0162 4.716 37.0515 6.8115 35.866L13.296 32.209C13.989 31.825 15.111 31.825 15.7875 32.209L22.272 35.866C24.3675 37.0515 26.0835 36.0162 26.0835 33.595V14.6257C26.1 11.7703 23.79 9.43256 20.9685 9.43256Z" stroke="#292D32" stroke-width="4.86865" stroke-linecap="round" stroke-linejoin="round"/>
<path d="M26.1 14.6257V33.595C26.1 36.0162 24.384 37.0348 22.2885 35.866L15.804 32.209C15.111 31.825 13.989 31.825 13.296 32.209L6.8115 35.866C4.716 37.0348 3 36.0162 3 33.595V14.6257C3 11.7703 5.30998 9.43256 8.13148 9.43256H20.9685C23.79 9.43256 26.1 11.7703 26.1 14.6257Z" stroke="#292D32" stroke-width="4.86865" stroke-linecap="round" stroke-linejoin="round"/>
<path d="M36 8.14696V27.1162C36 29.5375 34.284 30.556 32.1885 29.3872L26.1 25.9473V14.6259C26.1 11.7705 23.79 9.43274 20.9685 9.43274H12.9V8.14696C12.9 5.29155 15.21 2.95381 18.0315 2.95381H30.8685C33.69 2.95381 36 5.29155 36 8.14696Z" stroke="#292D32" stroke-width="4.86865" stroke-linecap="round" stroke-linejoin="round"/>
</svg>
