<svg width="34" height="35" viewBox="0 0 34 35" fill="none" xmlns="http://www.w3.org/2000/svg">
<path d="M16.2109 32.8885C7.27513 32.8885 0 25.525 0 16.4807C0 7.43642 7.27513 0.0729065 16.2109 0.0729065C25.1466 0.0729065 32.4218 7.43642 32.4218 16.4807C32.4218 25.525 25.1466 32.8885 16.2109 32.8885ZM16.2109 2.47405C8.572 2.47405 2.37232 8.76505 2.37232 16.4807C2.37232 24.1964 8.572 30.4874 16.2109 30.4874C23.8498 30.4874 30.0494 24.1964 30.0494 16.4807C30.0494 8.76505 23.8498 2.47405 16.2109 2.47405Z" fill="#292D32"/>
<path d="M32.8178 34.4892C32.5173 34.4892 32.2169 34.3771 31.9796 34.137L28.8165 30.9355C28.3579 30.4713 28.3579 29.7029 28.8165 29.2387C29.2752 28.7744 30.0343 28.7744 30.493 29.2387L33.6561 32.4402C34.1147 32.9044 34.1147 33.6728 33.6561 34.137C33.4188 34.3771 33.1183 34.4892 32.8178 34.4892Z" fill="#292D32"/>
</svg>
