<svg width="195" height="20" viewBox="0 0 195 20" fill="none" xmlns="http://www.w3.org/2000/svg">
<path d="M12.076 9.612C12.804 10.1533 13.3827 10.8347 13.812 11.656C14.2413 12.4587 14.456 13.3267 14.456 14.26C14.456 15.8467 13.8867 17.2 12.748 18.32C11.628 19.44 10.2747 20 8.688 20H0.4V16.612H8.688C9.34133 16.612 9.892 16.3787 10.34 15.912C10.8067 15.4453 11.04 14.8947 11.04 14.26C11.04 13.6067 10.8067 13.056 10.34 12.608C9.892 12.1413 9.34133 11.908 8.688 11.908H0.4V8.492H7.54C8.19333 8.492 8.744 8.268 9.192 7.82C9.65867 7.35333 9.892 6.79333 9.892 6.14C9.892 5.48667 9.65867 4.936 9.192 4.488C8.72533 4.02133 8.17467 3.788 7.54 3.788H0.4V0.399999H7.54C9.12667 0.399999 10.48 0.959999 11.6 2.08C12.72 3.2 13.28 4.55333 13.28 6.14C13.28 7.40933 12.8787 8.56667 12.076 9.612ZM20.6318 16.612H31.0478V20H20.6318H17.2438V0.399999H20.6318V16.612ZM38.1808 1.716C39.6928 0.838665 41.3354 0.399999 43.1088 0.399999C44.8821 0.399999 46.5154 0.838665 48.0088 1.716C49.5208 2.59333 50.7154 3.788 51.5928 5.3C52.4701 6.79333 52.9088 8.42667 52.9088 10.2C52.9088 11.9733 52.4701 13.616 51.5928 15.128C50.7154 16.6213 49.5208 17.8067 48.0088 18.684C46.5154 19.5613 44.8821 20 43.1088 20C41.3354 20 39.6928 19.5613 38.1808 18.684C36.6874 17.8067 35.5021 16.6213 34.6248 15.128C33.7474 13.616 33.3088 11.9733 33.3088 10.2C33.3088 8.42667 33.7474 6.79333 34.6248 5.3C35.5021 3.788 36.6874 2.59333 38.1808 1.716ZM38.5728 14.736C39.8234 15.9867 41.3354 16.612 43.1088 16.612C44.8821 16.612 46.3941 15.9867 47.6448 14.736C48.8954 13.4853 49.5208 11.9733 49.5208 10.2C49.5208 8.42667 48.8954 6.91467 47.6448 5.664C46.3941 4.41333 44.8821 3.788 43.1088 3.788C41.3354 3.788 39.8234 4.41333 38.5728 5.664C37.3221 6.91467 36.6968 8.42667 36.6968 10.2C36.6968 11.9733 37.3221 13.4853 38.5728 14.736ZM69.4782 14.736L71.8582 17.144C70.9622 18.04 69.9169 18.74 68.7222 19.244C67.5275 19.748 66.2675 20 64.9422 20C63.6169 20 62.3475 19.748 61.1342 19.244C59.9209 18.7213 58.8755 18.0213 57.9982 17.144C57.1209 16.2667 56.4209 15.2213 55.8982 14.008C55.3942 12.7947 55.1422 11.5253 55.1422 10.2C55.1422 8.42667 55.5809 6.79333 56.4582 5.3C57.3355 3.788 58.5209 2.59333 60.0142 1.716C61.5262 0.838665 63.1689 0.399999 64.9422 0.399999C65.6142 0.399999 66.2675 0.465332 66.9022 0.595999C67.5555 0.726666 68.1715 0.922665 68.7502 1.184C69.3475 1.42667 69.9075 1.72533 70.4302 2.08C70.9529 2.43467 71.4289 2.836 71.8582 3.284L69.4782 5.664C68.2275 4.41333 66.7155 3.788 64.9422 3.788C63.1689 3.788 61.6569 4.41333 60.4062 5.664C59.1555 6.91467 58.5302 8.42667 58.5302 10.2C58.5302 11.9733 59.1555 13.4853 60.4062 14.736C61.6569 15.9867 63.1689 16.612 64.9422 16.612C66.7155 16.612 68.2275 15.9867 69.4782 14.736ZM85.585 0.399999L78.809 10.2L85.585 20H81.469L76.765 13.196L74.693 10.2L81.469 0.399999H85.585ZM102.224 20H88.4195V16.612H102.224V20ZM102.224 3.788H88.4195V0.399999H102.224V3.788ZM99.8995 11.908H88.4195V8.492H99.8995V11.908ZM116.637 0.399999H120.025V20H116.637L105.045 0.399999H108.993L116.637 13.308V0.399999ZM136.622 0.399999V3.788L127.046 16.612H136.622V20H122.818V16.612L132.394 3.788H122.818V0.399999H136.622ZM152.967 0.399999H157.111L149.971 10.732V20H146.583V10.732L139.443 0.399999H143.559L148.263 7.204L152.967 0.399999ZM177.815 0.399999V20H174.399V9.724L170.675 20H167.063L159.923 0.399999H163.535L168.855 15.044L174.203 0.399999H177.815ZM194.427 20H180.623V16.612H194.427V20ZM194.427 3.788H180.623V0.399999H194.427V3.788ZM192.103 11.908H180.623V8.492H192.103V11.908Z" fill="#5540C7"/>
</svg>
